<svg width="120" height="120" viewBox="0 0 120 120" fill="none" xmlns="http://www.w3.org/2000/svg">
<circle cx="60" cy="60" r="58.6632" fill="#FAFAFA" stroke="black" stroke-width="2.67368"/>
<path fill-rule="evenodd" clip-rule="evenodd" d="M49.0539 35C41.7953 35 35.9111 40.8842 35.9111 48.1427V70.946C35.9111 78.2045 41.7953 84.0887 49.0538 84.0887H71.8571C79.1157 84.0887 84.9998 78.2045 84.9998 70.946V48.1427C84.9998 40.8842 79.1157 35 71.8571 35H49.0539ZM63.4868 45.9758C62.9219 44.9973 61.5096 44.9973 60.9447 45.9758L47.6722 68.9644C47.1073 69.9429 47.8134 71.166 48.9433 71.166H75.4882C76.6181 71.166 77.3243 69.9429 76.7593 68.9644L63.4868 45.9758Z" fill="#090B17"/>
<path d="M40.0433 75.3591C49.2627 73.1704 68.1341 63.1895 69.8644 40.7745" stroke="#090B17" stroke-width="2.27683"/>
<path d="M53.4946 53.805C53.9361 53.0403 55.0398 53.0403 55.4813 53.805L65.8537 71.7706C66.2952 72.5353 65.7434 73.4912 64.8604 73.4912H44.1155C43.2325 73.4912 42.6806 72.5353 43.1221 71.7706L53.4946 53.805Z" fill="#B6DDFF"/>
</svg>
